<?xml version="1.0" encoding="UTF-8"?>
<svg width="139px" height="57px" viewBox="0 0 139 57" version="1.1" xmlns="http://www.w3.org/2000/svg" xmlns:xlink="http://www.w3.org/1999/xlink">
    <!-- Generator: Sketch 61.2 (89653) - https://sketch.com -->
    <title>logo - login@2x</title>
    <desc>Created with Sketch.</desc>
    <g id="Desktop" stroke="none" stroke-width="1" fill="none" fill-rule="evenodd">
        <g id="0001-create-password" transform="translate(-622.000000, -182.000000)">
            <g id="Group-3">
                <g id="logo---login" transform="translate(622.000000, 182.000000)">
                    <path d="M15.3352917,4.69466667 C18.9130782,4.69466667 21.689826,5.58332445 23.6656185,7.36066667 C25.6414111,9.13800889 26.6292925,11.6386505 26.6292925,14.8626667 C26.6292925,18.2795726 25.6414111,20.9317683 23.6656185,22.8193333 C21.689826,24.7068983 18.9130782,25.6506667 15.3352917,25.6506667 L10.3290856,25.6506667 L10.3290856,33.6693333 L3,33.6693333 L3,4.69466667 L15.3352917,4.69466667 Z M14.9748448,19.616 C16.4700392,19.616 17.6247925,19.2302261 18.4391394,18.4586667 C19.2534864,17.6871073 19.6606537,16.5711184 19.6606537,15.1106667 C19.6606537,13.7053263 19.2534864,12.6237816 18.4391394,11.866 C17.6247925,11.1082184 16.4700392,10.7293333 14.9748448,10.7293333 L10.3290856,10.7293333 L10.3290856,19.616 L14.9748448,19.616 Z M32.8005792,3 L39.9294166,3 L39.9294166,33.6693333 L32.8005792,33.6693333 L32.8005792,3 Z M69.0892015,11.308 L69.0892015,33.6693333 L61.9603641,33.6693333 L61.9603641,30.032 C60.4918696,32.6222352 58.182363,33.9448886 55.0317749,34 C52.6821838,34 50.806544,33.2215633 49.4047993,31.6646667 C48.0030546,30.10777 47.3021928,28.0342352 47.3021928,25.444 L47.3021928,11.308 L54.4310302,11.308 L54.4310302,23.336 C54.4310302,24.6035619 54.7447493,25.595552 55.3721969,26.312 C55.9996446,27.028448 56.8473536,27.3866667 57.9153496,27.3866667 C59.1702449,27.359111 60.1581263,26.8837824 60.8790236,25.9606667 C61.5999209,25.0375509 61.9603641,23.8320074 61.9603641,22.344 L61.9603641,11.308 L69.0892015,11.308 Z M91,32.512 C90.199003,32.9804468 89.2778703,33.3455542 88.2365743,33.6073333 C87.1952782,33.8691124 86.140648,34 85.072652,34 C82.9366601,34 81.2078676,33.3662286 79.8862226,32.0986667 C78.5645776,30.8311048 77.903765,29.0813445 77.903765,26.8493333 L77.903765,17.26 L74.9000414,17.26 L74.9000414,12.3826667 L77.903765,12.3826667 L77.903765,6.18266667 L84.9925528,6.18266667 L84.9925528,12.3826667 L90.5995035,12.3826667 L90.5995035,17.26 L84.9925528,17.26 L84.9925528,25.692 C84.9925528,27.2626745 85.619991,28.048 86.8748862,28.048 C87.6491833,28.048 88.570316,27.8000025 89.638312,27.304 L91,32.512 Z" id="Pluto" fill="#FFFFFF" fill-rule="nonzero"></path>
                    <path d="M106.979695,11 C109.36211,11 111.460228,11.4782954 113.274112,12.4349005 C115.087996,13.3915057 116.495765,14.7362783 117.497462,16.4692586 C118.499159,18.2022389 119,20.2055341 119,22.4792043 C119,24.7806022 118.499159,26.7977611 117.497462,28.5307414 C116.495765,30.2637217 115.087996,31.6084943 113.274112,32.5650995 C111.460228,33.5217046 109.36211,34 106.979695,34 C104.597281,34 102.499163,33.5217046 100.685279,32.5650995 C98.8713953,31.6084943 97.4703941,30.2637217 96.4822335,28.5307414 C95.4940729,26.7977611 95,24.7806022 95,22.4792043 C95,20.2055341 95.4940729,18.2022389 96.4822335,16.4692586 C97.4703941,14.7362783 98.8713953,13.3915057 100.685279,12.4349005 C102.499163,11.4782954 104.597281,11 106.979695,11 Z M106.979695,16.9891501 C105.571905,16.9891501 104.434861,17.5021046 103.568528,18.5280289 C102.702195,19.5539533 102.269036,20.8987259 102.269036,22.562387 C102.269036,24.2537758 102.702195,25.612412 103.568528,26.6383363 C104.434861,27.6642607 105.571905,28.1772152 106.979695,28.1772152 C108.414559,28.1772152 109.565139,27.6642607 110.431472,26.6383363 C111.297805,25.612412 111.730964,24.2537758 111.730964,22.562387 C111.730964,20.8987259 111.291037,19.5539533 110.411168,18.5280289 C109.531298,17.5021046 108.387486,16.9891501 106.979695,16.9891501 Z" id="Combined-Shape" fill="#FFFFFF" fill-rule="nonzero"></path>
                    <circle id="Oval" fill="#FF8B46" cx="130.5" cy="8.5" r="8.5"></circle>
                    <path d="M7.8283726,47.5846154 C7.29560569,47.2377605 6.74381966,46.9776232 6.17299797,46.8041958 C5.60217628,46.6307684 5.07757184,46.5440559 4.5991689,46.5440559 C3.93592846,46.5440559 3.4058877,46.6755232 3.00903072,46.9384615 C2.61217373,47.2013999 2.41374822,47.5622355 2.41374822,48.020979 C2.41374822,48.4349671 2.53334716,48.7734253 2.77254863,49.0363636 C3.0117501,49.299302 3.30531113,49.506293 3.65324054,49.6573427 L4.13599005,49.8506854 C4.31865159,49.9191607 4.5230585,49.991664 4.74921169,50.0681955 L5.1047513,50.186014 C5.87671968,50.4321691 6.50189596,50.6671317 6.9802989,50.8909091 C7.45870184,51.1146864 7.8664255,51.4475502 8.20348212,51.8895105 C8.54053873,52.3314707 8.70906451,52.9160803 8.70906451,53.6433566 C8.70906451,54.3146887 8.53238426,54.9020954 8.17901845,55.4055944 C7.82565264,55.9090934 7.33094793,56.2979007 6.69488948,56.572028 C6.05883103,56.8461552 5.32764659,56.9832168 4.50131424,56.9832168 C3.6641091,56.9832168 2.84866177,56.8153863 2.05494781,56.4797203 C1.26123384,56.1440543 0.576258086,55.6965063 0,55.1370629 L0.701291712,53.7440559 C1.24493142,54.2923104 1.85651691,54.7146838 2.53606654,55.0111888 C3.21561617,55.3076938 3.8761285,55.4559441 4.51762335,55.4559441 C5.27871894,55.4559441 5.8794318,55.3020994 6.31977996,54.9944056 C6.76012812,54.6867117 6.9802989,54.2699327 6.9802989,53.7440559 C6.9802989,53.3300679 6.86069996,52.9888125 6.62149849,52.7202797 C6.38229702,52.4517469 6.08058151,52.2391616 5.71634291,52.0825175 C5.42495202,51.9572022 5.05180245,51.8211472 4.59688664,51.6743499 L4.24036849,51.5622378 C3.4792729,51.3272716 2.85953294,51.0979032 2.38113,50.8741259 C1.90272706,50.6503485 1.49772155,50.3202819 1.16610133,49.8839161 C0.834481115,49.4475503 0.668673493,48.8713323 0.668673493,48.1552448 C0.668673493,47.5286682 0.837199273,46.9748276 1.17425589,46.4937063 C1.51131251,46.012585 1.98427195,45.6433579 2.59314842,45.386014 C3.20202489,45.12867 3.9087459,45 4.71333267,45 C5.39831869,45 6.06970366,45.1034955 6.7275077,45.3104895 C7.38531174,45.5174836 7.96971566,45.7944039 8.48073698,46.1412587 L7.8283726,47.5846154 Z M22.0513985,45.0335664 C23.1495507,45.0335664 24.1579872,45.2965009 25.0767383,45.8223776 C25.9954894,46.3482544 26.7212375,47.0671283 27.2540044,47.979021 C27.7867713,48.8909137 28.0531508,49.8950994 28.0531508,50.9916084 C28.0531508,52.0881174 27.7867713,53.0978975 27.2540044,54.020979 C26.7212375,54.9440606 25.9954894,55.671326 25.0767383,56.2027972 C24.1579872,56.7342684 23.1495507,57 22.0513985,57 C20.9532463,57 19.9448097,56.7342684 19.0260586,56.2027972 C18.1073075,55.671326 17.3815594,54.9440606 16.8487925,54.020979 C16.3160256,53.0978975 16.0496461,52.0881174 16.0496461,50.9916084 C16.0496461,49.8950994 16.3160256,48.8909137 16.8487925,47.979021 C17.3815594,47.0671283 18.1045894,46.3482544 19.0179041,45.8223776 C19.9312188,45.2965009 20.9423735,45.0335664 22.0513985,45.0335664 Z M22.0677076,46.4769231 C21.2739936,46.4769231 20.5373729,46.6783197 19.8578232,47.0811189 C19.1782736,47.4839181 18.6373602,48.0293672 18.2350668,48.7174825 C17.8327734,49.4055978 17.6316298,50.1636322 17.6316298,50.9916084 C17.6316298,51.8195846 17.8327734,52.5804161 18.2350668,53.2741259 C18.6373602,53.9678356 19.1782736,54.5188791 19.8578232,54.9272727 C20.5373729,55.3356664 21.2739936,55.5398601 22.0677076,55.5398601 C22.8614215,55.5398601 23.592606,55.3356664 24.2612828,54.9272727 C24.9299596,54.5188791 25.4627186,53.9678356 25.8595755,53.2741259 C26.2564325,52.5804161 26.454858,51.8195846 26.454858,50.9916084 C26.454858,50.1636322 26.2564325,49.4055978 25.8595755,48.7174825 C25.4627186,48.0293672 24.9299596,47.4839181 24.2612828,47.0811189 C23.592606,46.6783197 22.8614215,46.4769231 22.0677076,46.4769231 Z M36.1602606,45.1342657 L43.5972145,45.1342657 L43.5809054,46.5944056 L37.7259351,46.5944056 L37.7259351,50.4545455 L42.9937775,50.4545455 L42.9937775,51.9146853 L37.7259351,51.9146853 L37.7259351,56.8825175 L36.1602606,56.8825175 L36.1602606,45.1342657 Z M49.8124676,45.1342657 L58.7335505,45.1342657 L58.7335505,46.6111888 L55.0476918,46.6111888 L55.0476918,56.8825175 L53.4820172,56.8825175 L53.4820172,46.6111888 L49.8124676,46.6111888 L49.8124676,45.1342657 Z M80.1162755,45.1342657 L81.7471865,45.1342657 L77.8819275,56.8825175 L76.2510165,56.8825175 L73.2990677,47.1818182 L70.2981915,56.8825175 L68.6835897,56.8825175 L64.8346398,45.1342657 L66.5144781,45.1342657 L69.5316634,55.1538462 L72.5325395,45.1342657 L74.0982141,45.1342657 L77.1153993,55.1538462 L80.1162755,45.1342657 Z M97.0139953,56.8825175 L95.8071212,54.0293706 L89.7890598,54.0293706 L88.5984948,56.8825175 L86.9512747,56.8825175 L92.0234078,45.1342657 L93.6543188,45.1342657 L98.7101427,56.8825175 L97.0139953,56.8825175 Z M90.408806,52.5692308 L95.2036842,52.5692308 L92.789936,46.8629371 L90.408806,52.5692308 Z M113.601842,56.8825175 L111.334876,53.1902098 C111.073929,53.2125875 110.861912,53.2237762 110.698821,53.2237762 L107.795799,53.2237762 L107.795799,56.8825175 L106.230125,56.8825175 L106.230125,45.1342657 L110.698821,45.1342657 C112.144902,45.1342657 113.262065,45.4783182 114.050343,46.1664336 C114.83862,46.8545489 115.232753,47.8307629 115.232753,49.0951049 C115.232753,50.0461586 115.018019,50.8461506 114.588543,51.4951049 C114.159068,52.1440592 113.542046,52.6139846 112.737459,52.9048951 L115.395844,56.8825175 L113.601842,56.8825175 Z M110.698821,51.7636364 C111.677372,51.7636364 112.427584,51.5426596 112.949478,51.1006993 C113.471372,50.658739 113.732315,50.0069973 113.732315,49.1454545 C113.732315,48.3062895 113.471372,47.6713308 112.949478,47.2405594 C112.427584,46.8097881 111.677372,46.5944056 110.698821,46.5944056 L107.795799,46.5944056 L107.795799,51.7636364 L110.698821,51.7636364 Z M123.878063,45.1342657 L131.804291,45.1342657 L131.804291,46.5944056 L125.443738,46.5944056 L125.443738,50.2195804 L131.135617,50.2195804 L131.135617,51.6797203 L125.443738,51.6797203 L125.443738,55.4223776 L132,55.4223776 L132,56.8825175 L123.878063,56.8825175 L123.878063,45.1342657 Z" id="SOFTWARE" fill="#FFFFFF" fill-rule="nonzero"></path>
                </g>
            </g>
        </g>
    </g>
</svg>